<svg version="1.1" id="Capa_1" xmlns="http://www.w3.org/2000/svg" xmlns:xlink="http://www.w3.org/1999/xlink" x="0px" y="0px"
	 width="21.114px" height="21.114px" viewBox="0 0 21.114 21.114" style="enable-background:new 0 0 21.114 21.114;"
	 xml:space="preserve" class="argentina">
<g>
	<path
			fill="transparent"
			stroke="#838187"
			stroke-width="1"
			d="M7.64,18.13c-0.033-0.115,0.261-0.295,0.287-0.461c0.148-0.925,2.601-1.297,0.668-2.733
		c-0.041-0.029,0.021-0.344,0.099-0.377c0.708-0.299,0.74-1.229,1.187-1.516c0.961-0.617-0.108-0.771-0.087-1.112
		c0.063-1.006,1.448,0.322,1.397-0.701c-0.06-1.241,0.796-0.932,1.449-1.06c1.379-0.273,1.881-1.134,1.32-2.227
		c-0.732-1.429-0.547-2.676,0.596-3.788c0.387-0.375,0.86-0.658,1.235-1.037c0.264-0.27,0.262-0.627-0.039-0.913
		c-0.171-0.161-0.393-0.161-0.477,0.058c-0.214,0.552-0.521,0.927-1.17,0.896c-1.139-0.057-0.112-0.835-0.394-1.177
		c-0.033-0.035-0.053-0.101-0.091-0.112c-1.291-0.399-2.104-1.802-3.571-1.764C9.141-0.19,8.812,0.145,8.36,0.961
		c-0.795,1.44-1.267,2.978-1.595,4.524c-0.184,0.86,0.267,1.862-0.105,2.793c-0.455,1.127-0.585,2.326-0.712,3.516
		c-0.198,1.858,0.469,3.802-0.775,5.589c-0.217,0.311,0.415,1.504,1.414,1.644C7.296,19.127,7.958,19.241,7.64,18.13z"/>
	<path d="M7.794,19.837c-0.309,1.777,0.892,1.209,1.688,1.122C8.953,20.605,8.421,20.254,7.794,19.837z"/>
</g>
</svg>