<?xml version="1.0"?>
<svg xmlns="http://www.w3.org/2000/svg" viewBox="0 0 80 80" fill="white">
    <path d="M 40 7 C 26.025266 7 14.112313 15.718504 9.3066406 28 L 9 28 C 7.3550302 28 6 29.35503 6 31 L 6 49 C 6 50.64497 7.3550302 52 9 52 L 9.3066406 52 C 14.112313 64.281496 26.025266 73 40 73 C 53.974734 73 65.887686 64.281496 70.693359 52 L 71 52 C 72.64497 52 74 50.64497 74 49 L 74 31 C 74 29.35503 72.64497 28 71 28 L 70.693359 28 C 65.887686 15.718504 53.974734 7 40 7 z M 40 9 A 1 1 0 0 0 39 10 A 1 1 0 0 0 40 11 A 1 1 0 0 0 41 10 A 1 1 0 0 0 40.080078 9.0039062 C 52.910929 9.0367283 63.852733 16.873929 68.535156 28 L 11.464844 28 C 16.157103 16.850559 27.134261 9 40 9 z M 33 10 A 1 1 0 0 0 32 11 A 1 1 0 0 0 33 12 A 1 1 0 0 0 34 11 A 1 1 0 0 0 33 10 z M 47 10 A 1 1 0 0 0 46 11 A 1 1 0 0 0 47 12 A 1 1 0 0 0 48 11 A 1 1 0 0 0 47 10 z M 30 13 A 1 1 0 0 0 29 14 A 1 1 0 0 0 30 15 A 1 1 0 0 0 31 14 A 1 1 0 0 0 30 13 z M 40 13 A 1 1 0 0 0 39 14 A 1 1 0 0 0 40 15 A 1 1 0 0 0 41 14 A 1 1 0 0 0 40 13 z M 50 13 A 1 1 0 0 0 49 14 A 1 1 0 0 0 50 15 A 1 1 0 0 0 51 14 A 1 1 0 0 0 50 13 z M 20 17 A 1 1 0 0 0 19 18 A 1 1 0 0 0 20 19 A 1 1 0 0 0 21 18 A 1 1 0 0 0 20 17 z M 24 17 A 1 1 0 0 0 23 18 A 1 1 0 0 0 24 19 A 1 1 0 0 0 25 18 A 1 1 0 0 0 24 17 z M 28 17 A 1 1 0 0 0 27 18 A 1 1 0 0 0 28 19 A 1 1 0 0 0 29 18 A 1 1 0 0 0 28 17 z M 32 17 A 1 1 0 0 0 31 18 A 1 1 0 0 0 32 19 A 1 1 0 0 0 33 18 A 1 1 0 0 0 32 17 z M 36 17 A 1 1 0 0 0 35 18 A 1 1 0 0 0 36 19 A 1 1 0 0 0 37 18 A 1 1 0 0 0 36 17 z M 40 17 A 1 1 0 0 0 39.001953 17.929688 A 1 1 0 0 0 39 18 A 1 1 0 0 0 39.929688 18.998047 A 1 1 0 0 0 40 19 A 1 1 0 0 0 41 18 A 1 1 0 0 0 40 17 z M 44 17 A 1 1 0 0 0 43 18 A 1 1 0 0 0 44 19 A 1 1 0 0 0 45 18 A 1 1 0 0 0 44 17 z M 48 17 A 1 1 0 0 0 47 18 A 1 1 0 0 0 48 19 A 1 1 0 0 0 49 18 A 1 1 0 0 0 48 17 z M 52 17 A 1 1 0 0 0 51 18 A 1 1 0 0 0 52 19 A 1 1 0 0 0 53 18 A 1 1 0 0 0 52 17 z M 56 17 A 1 1 0 0 0 55 18 A 1 1 0 0 0 56 19 A 1 1 0 0 0 57 18 A 1 1 0 0 0 56 17 z M 60 17 A 1 1 0 0 0 59 18 A 1 1 0 0 0 60 19 A 1 1 0 0 0 61 18 A 1 1 0 0 0 60 17 z M 26 21 A 1 1 0 0 0 25 22 A 1 1 0 0 0 26 23 A 1 1 0 0 0 27 22 A 1 1 0 0 0 26 21 z M 40 21 A 1 1 0 0 0 39 22 A 1 1 0 0 0 40 23 A 1 1 0 0 0 41 22 A 1 1 0 0 0 40 21 z M 54 21 A 1 1 0 0 0 53 22 A 1 1 0 0 0 54 23 A 1 1 0 0 0 55 22 A 1 1 0 0 0 54 21 z M 25 25 A 1 1 0 0 0 24 26 A 1 1 0 0 0 25 27 A 1 1 0 0 0 26 26 A 1 1 0 0 0 25 25 z M 40 25 A 1 1 0 0 0 39 26 A 1 1 0 0 0 40 27 A 1 1 0 0 0 41 26 A 1 1 0 0 0 40 25 z M 55 25 A 1 1 0 0 0 54 26 A 1 1 0 0 0 55 27 A 1 1 0 0 0 56 26 A 1 1 0 0 0 55 25 z M 9 30 L 71 30 C 71.56503 30 72 30.43497 72 31 L 72 49 C 72 49.56503 71.56503 50 71 50 L 9 50 C 8.4349698 50 8 49.56503 8 49 L 8 31 C 8 30.43497 8.4349698 30 9 30 z M 15 35 L 18.003906 45 L 19.888672 45 L 22.154297 37.917969 L 22.269531 37.917969 L 24.550781 45 L 26.429688 45 L 29.431641 35 L 27.359375 35 L 25.445312 42.443359 L 25.335938 42.443359 L 23.101562 35 L 21.324219 35 L 19.119141 42.443359 L 19.003906 42.443359 L 17.087891 35 L 15 35 z M 32.783203 35 L 35.787109 45 L 37.671875 45 L 39.9375 37.917969 L 40.054688 37.917969 L 42.335938 45 L 44.212891 45 L 47.216797 35 L 45.144531 35 L 43.228516 42.443359 L 43.119141 42.443359 L 40.884766 35 L 39.107422 35 L 36.904297 42.443359 L 36.787109 42.443359 L 34.871094 35 L 32.783203 35 z M 50.568359 35 L 53.570312 45 L 55.455078 45 L 57.722656 37.917969 L 57.837891 37.917969 L 60.119141 45 L 61.996094 45 L 65 35 L 62.927734 35 L 61.013672 42.443359 L 60.904297 42.443359 L 58.669922 35 L 56.892578 35 L 54.6875 42.443359 L 54.572266 42.443359 L 52.654297 35 L 50.568359 35 z M 31 43 A 1 1 0 0 0 30 44 A 1 1 0 0 0 31 45 A 1 1 0 0 0 32 44 A 1 1 0 0 0 31 43 z M 49 43 A 1 1 0 0 0 48 44 A 1 1 0 0 0 49 45 A 1 1 0 0 0 50 44 A 1 1 0 0 0 49 43 z M 11.464844 52 L 68.535156 52 C 63.842897 63.149441 52.865739 71 40 71 A 1 1 0 0 0 41 70 A 1 1 0 0 0 40 69 A 1 1 0 0 0 39 70 A 1 1 0 0 0 39.919922 70.996094 C 27.089071 70.963272 16.147267 63.126071 11.464844 52 z M 25 53 A 1 1 0 0 0 24 54 A 1 1 0 0 0 25 55 A 1 1 0 0 0 26 54 A 1 1 0 0 0 25 53 z M 40 53 A 1 1 0 0 0 39 54 A 1 1 0 0 0 40 55 A 1 1 0 0 0 41 54 A 1 1 0 0 0 40 53 z M 55 53 A 1 1 0 0 0 54 54 A 1 1 0 0 0 55 55 A 1 1 0 0 0 56 54 A 1 1 0 0 0 55 53 z M 26 57 A 1 1 0 0 0 25 58 A 1 1 0 0 0 26 59 A 1 1 0 0 0 27 58 A 1 1 0 0 0 26 57 z M 40 57 A 1 1 0 0 0 39 58 A 1 1 0 0 0 40 59 A 1 1 0 0 0 41 58 A 1 1 0 0 0 40 57 z M 54 57 A 1 1 0 0 0 53 58 A 1 1 0 0 0 54 59 A 1 1 0 0 0 55 58 A 1 1 0 0 0 54 57 z M 20 61 A 1 1 0 0 0 19 62 A 1 1 0 0 0 20 63 A 1 1 0 0 0 21 62 A 1 1 0 0 0 20 61 z M 24 61 A 1 1 0 0 0 23 62 A 1 1 0 0 0 24 63 A 1 1 0 0 0 25 62 A 1 1 0 0 0 24 61 z M 28 61 A 1 1 0 0 0 27 62 A 1 1 0 0 0 28 63 A 1 1 0 0 0 29 62 A 1 1 0 0 0 28 61 z M 32 61 A 1 1 0 0 0 31 62 A 1 1 0 0 0 32 63 A 1 1 0 0 0 33 62 A 1 1 0 0 0 32 61 z M 36 61 A 1 1 0 0 0 35 62 A 1 1 0 0 0 36 63 A 1 1 0 0 0 37 62 A 1 1 0 0 0 36 61 z M 40 61 A 1 1 0 0 0 39.001953 61.929688 A 1 1 0 0 0 39 62 A 1 1 0 0 0 39.929688 62.998047 A 1 1 0 0 0 40 63 A 1 1 0 0 0 41 62 A 1 1 0 0 0 40 61 z M 44 61 A 1 1 0 0 0 43 62 A 1 1 0 0 0 44 63 A 1 1 0 0 0 45 62 A 1 1 0 0 0 44 61 z M 48 61 A 1 1 0 0 0 47 62 A 1 1 0 0 0 48 63 A 1 1 0 0 0 49 62 A 1 1 0 0 0 48 61 z M 52 61 A 1 1 0 0 0 51 62 A 1 1 0 0 0 52 63 A 1 1 0 0 0 53 62 A 1 1 0 0 0 52 61 z M 56 61 A 1 1 0 0 0 55 62 A 1 1 0 0 0 56 63 A 1 1 0 0 0 57 62 A 1 1 0 0 0 56 61 z M 60 61 A 1 1 0 0 0 59 62 A 1 1 0 0 0 60 63 A 1 1 0 0 0 61 62 A 1 1 0 0 0 60 61 z M 30 65 A 1 1 0 0 0 29 66 A 1 1 0 0 0 30 67 A 1 1 0 0 0 31 66 A 1 1 0 0 0 30 65 z M 40 65 A 1 1 0 0 0 39 66 A 1 1 0 0 0 40 67 A 1 1 0 0 0 41 66 A 1 1 0 0 0 40 65 z M 50 65 A 1 1 0 0 0 49 66 A 1 1 0 0 0 50 67 A 1 1 0 0 0 51 66 A 1 1 0 0 0 50 65 z M 33 68 A 1 1 0 0 0 32 69 A 1 1 0 0 0 33 70 A 1 1 0 0 0 34 69 A 1 1 0 0 0 33 68 z M 47 68 A 1 1 0 0 0 46 69 A 1 1 0 0 0 47 70 A 1 1 0 0 0 48 69 A 1 1 0 0 0 47 68 z"/>
</svg>
